PathFileType	4	(X/Y/Z)	D:\TRACE\spot_10-12-23\spot_arm_motion_3_3-v60.trc
DataRate	CameraRate	NumFrames	NumMarkers	Units	OrigDataRate	OrigDataStartFrame	OrigNumFrames
100.00	100.00	      36	9	mm	100.00	3501	      7000
Frame#	Time	front left toe			Front right toe			aft left toe			aft right toe			Arm			FL body			FR body			AL Body			AR Body			
		X1	Y1	Z1	X2	Y2	Z2	X3	Y3	Z3	X4	Y4	Z4	X5	Y5	Z5	X6	Y6	Z6	X7	Y7	Z7	X8	Y8	Z8	X9	Y9	Z9	

3501	35.000	-162.55727	24.22684	-0.88772	332.70261	24.36489	21.09957	-173.24696	-1.14404	610.23828	309.42770	-8.65124	626.54114	67.69254	773.11719	-712.47742	21.99577	549.95343	-40.81371	174.93784	555.19977	-38.10113	2.90245	533.02820	842.85980	153.85326	532.02075	848.30566	
3502	35.010	-162.54605	24.26836	-0.97088	332.67157	24.41414	21.11463	-173.28709	-1.06014	610.19958	309.41406	-8.38696	626.53931	67.95541	773.39886	-712.53302	21.94885	550.35217	-40.81512	174.84724	555.63446	-38.06816	2.80978	532.62390	842.90857	153.68300	531.81140	848.22534	
3503	35.020	-162.57927	24.24708	-1.02090	332.61346	24.42344	21.09311	-173.29703	-0.84103	610.12781	309.41653	-8.13951	626.55231	68.15070	773.75690	-712.58051	21.97098	550.56696	-40.77311	174.92395	555.89246	-38.01339	2.58904	532.43378	842.97339	153.49242	531.70782	848.23041	
3504	35.030	-162.58011	24.22680	-1.10972	332.64206	24.41077	21.07226	-173.34142	-0.59780	610.06439	309.48242	-7.85601	626.63446	68.04626	774.47101	-712.85211	21.92376	550.70123	-40.77127	174.90393	556.02039	-37.99726	2.48609	532.34784	842.97540	153.36012	531.63391	848.17505	
3505	35.040	-162.57971	24.21748	-1.15712	332.65799	24.42665	21.02788	-173.30215	-0.39469	610.05554	309.52597	-7.60835	626.66119	68.07891	775.36877	-712.77100	22.00245	550.75995	-40.82280	174.88269	556.07013	-37.97550	2.36820	532.30878	842.96936	153.21106	531.58331	848.12433	
3506	35.050	-162.58113	24.18206	-1.18737	332.64386	24.39438	21.03998	-173.33545	-0.33207	610.07318	309.52478	-7.43381	626.52905	68.12562	776.44440	-712.75397	21.92325	550.74432	-40.77185	174.90672	556.10541	-37.93132	2.38241	532.15295	842.94525	153.80107	531.65417	848.76160	
3507	35.060	-162.56392	24.12139	-1.21230	332.64993	24.39099	20.99038	-173.37154	-0.16411	610.10413	309.53552	-7.30089	626.48260	68.12933	777.97968	-712.73389	21.87019	550.79645	-40.78179	174.87199	556.15143	-37.93082	2.38437	532.02454	842.90503	153.79185	531.52972	848.72241	
3508	35.070	-162.57672	24.14649	-1.26729	332.62698	24.36399	20.92652	-173.31172	-0.00364	610.14233	309.50418	-7.11780	626.43182	68.17985	779.56305	-712.58606	21.84606	550.84351	-40.76252	174.78627	556.22290	-37.95410	2.27286	531.91827	842.83551	153.73439	531.38538	848.72247	
3509	35.080	-162.60027	24.12808	-1.28959	332.57300	24.32403	20.83324	-173.33983	0.11701	610.13922	309.47864	-6.96698	626.42395	68.19188	781.32751	-712.43976	21.78229	550.88708	-40.74813	174.70450	556.38898	-37.95390	2.20104	531.71899	842.75635	153.65137	531.16956	848.77136	
3510	35.090	-162.60023	24.10906	-1.32410	332.53247	24.31619	20.73435	-173.39932	0.34772	610.07141	309.36258	-6.85610	626.45306	68.20756	782.93341	-712.17133	21.73678	551.01697	-40.77193	174.13284	556.79156	-38.02336	2.31711	531.38531	842.73615	153.52979	530.90814	848.80469	
3511	35.100	-162.60141	24.10753	-1.36327	332.50089	24.31022	20.69936	-173.43825	0.64002	610.05670	309.27576	-6.74675	626.41656	67.98199	784.98254	-711.84839	21.60115	551.34082	-40.83150	174.25853	556.88611	-37.66817	2.26866	531.08899	842.74713	152.60184	530.38318	848.02679	
3512	35.110	-162.60300	24.07777	-1.38236	332.54245	24.27004	20.61974	-173.48943	0.83709	610.05139	309.26361	-6.55730	626.46173	68.12330	786.44250	-711.71411	21.53091	551.67706	-40.80941	174.47804	557.12164	-37.61639	2.18211	530.53705	842.80859	152.56668	530.03058	848.02106	
3513	35.120	-162.60587	24.14664	-1.45696	332.43277	24.28744	20.53936	-173.53746	1.08250	610.09357	309.17105	-6.35726	626.42676	67.98859	787.99170	-711.50751	21.51968	551.93958	-40.75527	174.34955	557.50275	-37.65385	1.91567	530.31488	842.96161	152.42064	529.65692	847.88428	
3514	35.130	-162.64116	24.13755	-1.52764	332.40836	24.26173	20.45628	-173.56831	1.32710	610.10046	309.13406	-6.13361	626.40887	67.89236	789.44812	-711.17059	21.38193	552.35492	-40.64777	174.10892	558.06226	-37.92309	1.78967	530.12042	842.89252	152.30351	529.39746	847.85663	
3515	35.140	-162.67467	24.14138	-1.55342	332.32623	24.33262	20.36679	-173.55244	1.50377	610.06989	309.04669	-5.85389	626.36499	67.98958	790.81030	-710.92346	21.38599	552.84058	-40.61924	173.98668	558.62848	-37.90194	1.62508	529.93524	842.86865	152.18431	529.13354	847.88495	
3516	35.150	-162.66959	24.02570	-1.55714	332.29498	24.35661	20.31845	-173.58151	1.71372	610.05145	308.98633	-5.60959	626.25128	67.99612	791.98901	-710.74084	21.30147	553.46033	-40.67308	173.68933	559.27240	-37.74044	1.54404	529.70111	842.82294	151.92120	528.76190	847.85492	
3517	35.160	-162.67964	24.07029	-1.63390	332.21127	24.36079	20.21237	-173.60663	1.89832	609.98199	309.01465	-5.25204	626.25586	68.24231	793.07745	-710.53656	21.09768	553.94537	-40.63017	173.80882	559.52954	-37.70478	1.46338	529.38635	842.82684	152.78885	528.93866	848.89801	
3518	35.170	-162.67888	24.01734	-1.72265	332.29181	24.36716	20.17860	-173.63153	2.15415	609.98145	309.10522	-4.84493	626.32568	68.18282	793.82031	-710.28003	20.99625	554.25867	-40.60154	173.75621	559.87103	-37.72128	1.32572	529.14954	842.86786	152.61412	528.77386	849.03485	
3519	35.180	-162.68724	23.91480	-1.76989	332.16876	24.33419	20.07018	-173.64789	2.34177	609.98608	309.09735	-4.59939	626.26654	68.25869	794.74432	-710.13562	20.91200	554.47864	-40.53611	173.60510	560.21222	-37.71868	1.18338	528.84723	842.76764	152.56026	528.62701	848.87177	
3520	35.190	-162.68588	23.91253	-1.87894	332.21622	24.39722	20.04243	-173.70453	2.58730	609.94788	309.15549	-4.37671	626.33167	68.34816	795.29651	-710.02954	20.91954	554.70807	-40.44712	173.47185	560.71997	-37.75887	1.64033	528.35291	842.57764	152.45209	528.51404	848.83569	
3521	35.200	-162.74400	23.90005	-1.92420	332.11685	24.36421	19.87497	-173.69582	2.78833	609.89691	309.15298	-4.21172	626.33325	68.41112	795.71948	-709.91968	20.80432	555.13037	-40.49139	173.30664	561.18390	-37.87116	1.01715	528.61176	842.76514	151.05531	528.15601	847.35272	
3522	35.210	-162.81346	23.87703	-2.09035	331.73486	24.35088	20.06910	-173.72482	3.08603	609.81506	309.15692	-4.02737	626.27985	68.46167	796.05664	-709.89777	20.73001	555.58081	-40.61940	173.17308	561.45099	-37.90086	0.89847	528.52527	842.71533	151.04085	528.03455	847.49402	
3523	35.220	-162.89394	23.82036	-2.24987	331.64380	24.34413	19.97589	-173.73471	3.31477	609.78644	309.09311	-3.75332	626.12073	68.44505	796.27509	-709.92371	20.65059	555.94238	-40.72104	173.14861	561.62897	-37.85266	0.52004	528.55005	842.21661	150.81670	527.95764	847.21191	
3524	35.230	-162.94865	23.81192	-2.40430	331.51987	24.55245	19.88248	-173.73868	3.54911	609.77240	308.98914	-3.52163	625.99103	68.42002	796.40491	-709.99353	20.60964	556.09143	-40.81187	173.20264	561.79840	-37.87077	0.37598	528.57892	842.14209	150.67537	527.99371	847.14044	
3525	35.240	-162.99413	23.81906	-2.51431	330.45010	23.16979	19.51326	-173.73314	3.79633	609.77332	308.78555	-3.23747	625.98303	68.39529	796.50220	-710.14264	20.41633	556.37207	-40.75554	173.07622	561.97845	-37.96848	0.15308	528.83429	842.04639	150.52927	528.23352	846.88989	
3526	35.250	-163.04361	23.79216	-2.64858	330.44370	23.24301	19.49088	-173.75026	4.15689	609.76123	308.77267	-2.97723	625.90204	68.34123	796.41620	-710.27783	20.46814	556.26044	-40.93227	173.07913	562.08386	-38.06966	-0.02674	528.90173	841.97290	150.38101	528.23041	846.89856	
3527	35.260	-163.03886	23.76116	-2.71075	330.38727	23.53252	19.54825	-173.80507	4.43970	609.74951	308.66965	-2.69668	625.81689	68.28059	796.27325	-710.21948	20.35817	556.30548	-41.04530	173.01402	562.17627	-38.08061	0.24160	528.95142	842.34119	150.24425	528.35052	846.80804	
3528	35.270	-163.05878	23.74278	-2.77474	330.37769	23.50102	19.52934	-173.82945	4.65945	609.72400	308.65918	-2.46997	625.77148	68.30991	795.97498	-710.39850	20.26784	556.34772	-41.18191	172.89989	562.26782	-38.28850	0.14422	529.13647	842.24591	150.18655	528.52808	846.67413	
3529	35.280	-163.09456	23.74433	-2.83039	330.41263	23.48856	19.46849	-173.85187	4.88899	609.66095	308.66986	-2.18070	625.71417	68.33877	795.53546	-710.72266	20.11666	556.42041	-41.33168	172.76889	562.29932	-38.43665	0.01732	529.36780	842.20557	149.98193	528.82867	846.56085	
3530	35.290	-163.09209	23.67271	-2.89596	330.36884	23.46093	19.41224	-173.84433	5.08074	609.58453	308.83005	-1.84018	625.72913	68.61044	795.08020	-710.93158	20.00616	556.47864	-41.45256	172.86708	562.21265	-38.16042	-0.12680	529.72125	842.11176	149.91599	529.06683	846.43011	
3531	35.300	-163.12657	23.62001	-2.90434	330.41278	23.47606	19.37271	-173.85971	5.27178	609.46796	308.88898	-1.58311	625.72076	68.38246	794.79742	-711.13867	19.92114	556.51666	-41.56765	172.83800	562.22394	-38.21676	0.08110	529.76782	841.96417	149.79614	529.26556	846.39825	
3532	35.310	-163.11215	23.60896	-2.94846	330.40521	23.48549	19.32191	-173.91168	5.51130	609.42609	308.88254	-1.28135	625.68024	68.34701	794.19745	-711.25763	19.90524	556.47247	-41.67712	172.73943	562.20911	-38.34905	-0.00196	530.02948	841.82935	149.67664	529.49823	846.24713	
3533	35.320	-163.12993	23.60498	-3.00198	330.40698	23.44740	19.27328	-173.89610	5.69865	609.34808	308.87714	-1.01485	625.66815	68.33597	793.60651	-711.46741	19.84807	556.41138	-41.76572	172.52328	562.30530	-38.86683	-0.28472	530.28033	841.48859	149.38647	529.52441	845.79572	
3534	35.330	-163.12457	23.57578	-3.07173	330.33563	23.36752	19.18789	-173.87624	5.93748	609.28027	308.84302	-0.79385	625.59814	68.38699	793.02679	-711.61029	19.80424	556.36725	-41.83937	172.46953	562.27307	-38.93316	-0.30860	530.43878	841.39667	149.26933	529.66266	845.66846	
3535	35.340	-163.09877	23.52843	-3.11859	330.36536	23.34149	19.10650	-173.85664	6.07702	609.24109	308.85040	-0.62732	625.58563	68.47318	792.57166	-711.82983	19.78203	556.32166	-41.91607	172.47606	562.23907	-39.00050	-0.36992	530.65509	841.51849	149.40569	529.86487	845.94055	
3536	35.350	-163.09669	23.52506	-3.15360	330.36276	23.32080	19.01039	-173.86621	6.26560	609.25885	308.78546	-0.40597	625.51367	68.51610	792.12738	-712.01556	19.74458	556.20990	-41.94793	172.49637	562.23584	-39.02956	-0.37002	530.81958	841.47632	149.17690	529.92377	845.53668	
